<?xml version="1.0" encoding="UTF-8" standalone="no"?>
<!DOCTYPE svg PUBLIC "-//W3C//DTD SVG 1.1//EN" "http://www.w3.org/Graphics/SVG/1.1/DTD/svg11.dtd">
<svg width="100%" height="100%" viewBox="0 0 313 308" version="1.1" xmlns="http://www.w3.org/2000/svg" xmlns:xlink="http://www.w3.org/1999/xlink" xml:space="preserve" style="fill-rule:evenodd;clip-rule:evenodd;stroke-linejoin:round;stroke-miterlimit:1.41421;">
    <g transform="matrix(1,0,0,1,-210.464,-234.08)">
        <g id="Layer-1">
            <g>
                <path d="M441.63,405.96L442.72,402.29C442.46,403.68 442.09,404.9 441.63,405.96" style="fill:rgb(27,170,229);fill-rule:nonzero;"/>
                <path d="M441.62,405.97L432.79,435.55L391.09,461.86L344.43,461.36L317.13,445.98L294.79,414.7L295.78,403.78C295.78,403.78 322.09,425.62 332.02,402.79C332.02,402.79 348.4,419.67 365.78,406.76C365.78,406.76 389.6,425.62 401.02,399.81C401.02,399.81 434.03,423.13 441.62,405.97" style="fill:rgb(27,170,229);fill-rule:nonzero;"/>
            </g>
            <path d="M367.035,301.954L367.32,301.956L367.604,301.958L367.888,301.961L368.173,301.965L368.456,301.97L368.74,301.975L369.023,301.982L369.306,301.989L369.589,301.997L369.872,302.006L370.154,302.016L370.437,302.027L370.719,302.039L371.001,302.051L371.282,302.065L371.564,302.079L371.845,302.094L372.126,302.11L372.406,302.127L372.687,302.145L372.968,302.163L373.248,302.183L373.528,302.203L373.807,302.224L374.086,302.246L374.366,302.268L374.645,302.292L374.924,302.316L375.202,302.342L375.48,302.368L375.758,302.395L376.036,302.423L376.313,302.451L376.59,302.481L376.868,302.511L377.144,302.542L377.421,302.574L377.697,302.607L377.973,302.64L378.249,302.675L378.524,302.71L378.8,302.746L379.074,302.783L379.349,302.82L379.624,302.859L379.898,302.898L380.172,302.938L380.445,302.979L380.718,303.021L380.991,303.064L381.265,303.107L381.537,303.151L381.809,303.196L382.081,303.242L382.353,303.289L382.624,303.336L382.895,303.384L383.166,303.433L383.437,303.483L383.707,303.534L383.977,303.585L384.247,303.638L384.517,303.691L384.785,303.744L385.054,303.799L385.323,303.854L385.591,303.91L385.859,303.967L386.127,304.025L386.394,304.084L386.661,304.143L386.928,304.203L387.194,304.264L387.461,304.326L387.726,304.388L387.992,304.451L388.258,304.516L388.522,304.58L388.787,304.646L389.051,304.712L389.315,304.779L389.578,304.847L389.842,304.916L390.105,304.985L390.368,305.055L390.63,305.126L390.892,305.198L391.153,305.27L391.415,305.344L391.676,305.418L391.937,305.492L392.198,305.568L392.463,305.646L392.976,305.799L393.494,305.957L394.01,306.118L394.526,306.281L395.039,306.448L395.551,306.618L396.062,306.791L396.572,306.966L397.08,307.145L397.586,307.326L398.091,307.511L398.595,307.698L399.097,307.888L399.598,308.081L400.097,308.277L400.594,308.476L401.09,308.678L401.585,308.882L402.078,309.09L402.57,309.3L403.059,309.513L403.548,309.728L404.034,309.947L404.52,310.168L405.004,310.393L405.485,310.619L405.966,310.849L406.444,311.081L406.921,311.316L407.397,311.554L407.87,311.795L408.342,312.038L408.813,312.284L409.281,312.532L409.748,312.783L410.213,313.037L410.677,313.294L411.138,313.553L411.598,313.815L412.056,314.079L412.513,314.346L412.967,314.615L413.42,314.888L413.871,315.162L414.32,315.44L414.768,315.719L415.213,316.002L415.656,316.287L416.098,316.574L416.538,316.864L416.976,317.156L417.412,317.451L417.846,317.748L418.279,318.048L418.709,318.351L419.137,318.655L419.563,318.962L419.988,319.272L420.411,319.584L420.831,319.899L421.249,320.215L421.666,320.535L422.081,320.856L422.493,321.18L422.903,321.507L423.312,321.835L423.718,322.166L424.122,322.5L424.525,322.835L424.925,323.173L425.322,323.514L425.718,323.856L426.112,324.201L426.504,324.548L426.893,324.897L427.281,325.249L427.666,325.603L428.048,325.959L428.429,326.317L428.808,326.677L429.184,327.04L429.558,327.405L429.93,327.772L430.3,328.141L430.667,328.512L431.033,328.886L431.396,329.262L431.756,329.639L432.114,330.019L432.47,330.401L432.824,330.785L433.175,331.171L433.524,331.559L433.871,331.95L434.216,332.342L434.557,332.737L434.897,333.133L435.234,333.531L435.569,333.932L435.901,334.334L436.231,334.739L436.559,335.145L436.884,335.554L437.206,335.964L437.526,336.376L437.844,336.791L438.159,337.207L438.472,337.625L438.782,338.045L439.09,338.467L439.395,338.891L439.697,339.317L439.997,339.744L440.295,340.174L440.589,340.605L440.882,341.038L441.171,341.473L441.458,341.91L441.743,342.349L442.024,342.789L442.303,343.231L442.58,343.676L442.854,344.121L443.125,344.569L443.393,345.018L443.659,345.469L443.922,345.922L444.182,346.376L444.44,346.833L444.694,347.291L444.946,347.75L445.196,348.211L445.442,348.674L445.686,349.139L445.927,349.605L446.165,350.073L446.4,350.543L446.632,351.014L446.862,351.486L447.088,351.961L447.312,352.437L447.533,352.914L447.751,353.393L447.964,353.868L448.073,354.115L448.178,354.356L448.283,354.597L448.388,354.84L448.491,355.081L448.594,355.324L448.696,355.568L448.797,355.811L448.898,356.055L448.997,356.299L449.096,356.544L449.195,356.789L449.292,357.034L449.389,357.28L449.485,357.526L449.581,357.772L449.675,358.019L449.769,358.267L449.862,358.514L449.954,358.762L450.046,359.011L450.137,359.259L450.227,359.507L450.316,359.757L450.405,360.007L450.492,360.257L450.579,360.507L450.665,360.758L450.751,361.009L450.835,361.26L450.919,361.512L451.002,361.764L451.085,362.017L451.166,362.27L451.247,362.523L451.327,362.776L451.406,363.03L451.485,363.284L451.562,363.538L451.639,363.793L451.715,364.048L451.791,364.304L451.865,364.56L451.939,364.816L452.012,365.072L452.084,365.329L452.155,365.586L452.226,365.843L452.295,366.101L452.364,366.359L452.432,366.617L452.5,366.875L452.566,367.135L452.632,367.394L452.697,367.653L452.761,367.913L452.824,368.174L452.887,368.434L452.948,368.694L453.009,368.956L453.069,369.217L453.128,369.479L453.187,369.74L453.244,370.003L453.301,370.266L453.357,370.528L453.412,370.791L453.466,371.055L453.52,371.319L453.572,371.583L453.624,371.847L453.675,372.111L453.725,372.376L453.775,372.641L453.823,372.907L453.871,373.172L453.917,373.438L453.963,373.704L454.009,373.971L454.053,374.238L454.096,374.504L454.139,374.772L454.181,375.039L454.221,375.307L454.261,375.575L454.301,375.844L454.339,376.112L454.376,376.381L454.413,376.65L454.449,376.919L454.484,377.189L454.518,377.459L454.551,377.729L454.583,378L454.615,378.27L454.645,378.541L454.675,378.812L454.704,379.084L454.732,379.355L454.759,379.626L454.785,379.898L454.811,380.171L454.835,380.443L454.859,380.716L454.882,380.989L454.904,381.263L454.925,381.536L454.945,381.809L454.964,382.084L454.982,382.358L455,382.632L455.016,382.906L455.032,383.181L455.047,383.456L455.061,383.731L455.074,384.007L455.086,384.283L455.097,384.558L455.108,384.834L455.117,385.11L455.126,385.387L455.134,385.664L455.14,385.94L455.146,386.218L455.151,386.495L455.155,386.772L455.158,387.05L455.161,387.328L455.162,387.606L455.162,387.884L455.162,388.162L455.161,388.44L455.158,388.718L455.155,388.996L455.151,389.273L455.146,389.55L455.14,389.828L455.134,390.104L455.126,390.381L455.117,390.657L455.108,390.933L455.097,391.209L455.086,391.485L455.074,391.761L455.061,392.037L455.047,392.311L455.032,392.586L455.016,392.861L455,393.136L454.982,393.41L454.964,393.684L454.945,393.958L454.925,394.232L454.904,394.505L454.882,394.778L454.859,395.052L454.835,395.324L454.811,395.597L454.785,395.869L454.759,396.141L454.732,396.412L454.704,396.684L454.675,396.956L454.645,397.227L454.615,397.498L454.583,397.768L454.551,398.039L454.518,398.309L454.484,398.578L454.449,398.848L454.413,399.117L454.376,399.387L454.339,399.656L454.301,399.924L454.261,400.192L454.221,400.46L454.181,400.728L454.139,400.996L454.096,401.263L454.053,401.53L454.009,401.797L453.963,402.063L453.917,402.33L453.871,402.596L453.823,402.861L453.775,403.127L453.725,403.392L453.675,403.656L453.624,403.921L453.572,404.185L453.52,404.449L453.466,404.713L453.412,404.977L453.357,405.239L453.301,405.502L453.244,405.765L453.187,406.027L453.128,406.289L453.069,406.55L453.009,406.812L452.948,407.073L452.887,407.334L452.824,407.594L452.761,407.855L452.697,408.114L452.632,408.373L452.566,408.633L452.5,408.892L452.432,409.151L452.364,409.409L452.295,409.667L452.226,409.925L452.155,410.182L452.084,410.439L452.012,410.696L451.939,410.952L451.865,411.208L451.791,411.464L451.715,411.72L451.639,411.974L451.562,412.229L451.485,412.484L451.406,412.738L451.327,412.991L451.247,413.245L451.166,413.498L451.085,413.751L451.002,414.004L450.919,414.256L450.835,414.507L450.751,414.758L450.665,415.01L450.579,415.26L450.492,415.51L450.405,415.761L450.316,416.011L450.227,416.26L450.137,416.509L450.046,416.757L449.954,417.006L449.862,417.254L449.769,417.501L449.675,417.748L449.581,417.995L449.485,418.241L449.389,418.488L449.292,418.733L449.195,418.979L449.096,419.224L448.997,419.469L448.898,419.713L448.797,419.956L448.696,420.2L448.594,420.443L448.491,420.686L448.388,420.928L448.283,421.17L448.178,421.412L448.073,421.653L447.964,421.899L447.751,422.375L447.533,422.854L447.312,423.331L447.088,423.807L446.862,424.281L446.632,424.754L446.4,425.225L446.165,425.695L445.927,426.163L445.686,426.629L445.442,427.093L445.196,427.556L444.946,428.017L444.694,428.477L444.44,428.935L444.182,429.391L443.922,429.846L443.659,430.299L443.393,430.749L443.125,431.199L442.854,431.646L442.58,432.092L442.303,432.536L442.024,432.978L441.743,433.419L441.458,433.857L441.171,434.294L440.882,434.729L440.589,435.163L440.295,435.594L439.997,436.023L439.697,436.451L439.395,436.877L439.09,437.3L438.782,437.722L438.472,438.143L438.159,438.561L437.844,438.977L437.526,439.391L437.206,439.803L436.884,440.214L436.559,440.622L436.231,441.029L435.901,441.433L435.569,441.836L435.234,442.236L434.897,442.635L434.557,443.031L434.216,443.425L433.871,443.818L433.524,444.208L433.175,444.596L432.824,444.982L432.47,445.367L432.114,445.749L431.756,446.128L431.396,446.506L431.033,446.882L430.667,447.255L430.3,447.627L429.93,447.996L429.558,448.363L429.184,448.728L428.808,449.09L428.429,449.451L428.048,449.809L427.666,450.165L427.281,450.519L426.893,450.87L426.504,451.22L426.112,451.567L425.718,451.912L425.322,452.254L424.925,452.594L424.525,452.932L424.122,453.268L423.718,453.601L423.312,453.932L422.903,454.261L422.493,454.587L422.081,454.911L421.666,455.233L421.249,455.552L420.831,455.869L420.411,456.183L419.988,456.495L419.563,456.805L419.137,457.112L418.709,457.417L418.279,457.719L417.846,458.019L417.412,458.316L416.976,458.611L416.538,458.904L416.098,459.194L415.656,459.481L415.213,459.766L414.768,460.048L414.32,460.328L413.871,460.605L413.42,460.88L412.967,461.152L412.513,461.422L412.056,461.689L411.598,461.953L411.138,462.215L410.677,462.474L410.213,462.73L409.748,462.984L409.281,463.235L408.813,463.484L408.342,463.73L407.87,463.973L407.397,464.214L406.921,464.451L406.444,464.686L405.966,464.919L405.485,465.148L405.004,465.375L404.52,465.599L404.034,465.821L403.548,466.039L403.059,466.255L402.57,466.468L402.078,466.678L401.585,466.885L401.09,467.09L400.594,467.292L400.097,467.49L399.598,467.686L399.097,467.879L398.595,468.07L398.091,468.257L397.586,468.441L397.08,468.623L396.572,468.801L396.062,468.977L395.551,469.15L395.039,469.319L394.526,469.486L394.01,469.65L393.494,469.811L392.976,469.969L392.463,470.122L392.198,470.2L391.937,470.275L391.676,470.35L391.415,470.424L391.153,470.497L390.892,470.569L390.63,470.641L390.368,470.712L390.105,470.782L389.842,470.852L389.578,470.921L389.315,470.988L389.051,471.055L388.787,471.122L388.522,471.187L388.258,471.252L387.992,471.316L387.726,471.379L387.461,471.442L387.194,471.503L386.928,471.564L386.661,471.625L386.394,471.684L386.127,471.742L385.859,471.8L385.591,471.857L385.323,471.913L385.055,471.969L384.785,472.023L384.516,472.077L384.247,472.13L383.977,472.182L383.707,472.234L383.437,472.284L383.166,472.334L382.895,472.383L382.624,472.431L382.353,472.479L382.081,472.525L381.809,472.571L381.537,472.616L381.265,472.66L380.991,472.704L380.718,472.747L380.445,472.788L380.172,472.829L379.898,472.869L379.624,472.909L379.349,472.947L379.074,472.985L378.8,473.022L378.524,473.058L378.249,473.093L377.973,473.127L377.697,473.161L377.421,473.194L377.144,473.226L376.868,473.257L376.59,473.287L376.313,473.316L376.036,473.345L375.758,473.373L375.48,473.4L375.202,473.426L374.924,473.451L374.645,473.476L374.366,473.499L374.086,473.522L373.807,473.544L373.528,473.565L373.248,473.585L372.968,473.604L372.687,473.623L372.406,473.641L372.126,473.657L371.845,473.673L371.564,473.688L371.282,473.703L371.001,473.716L370.719,473.729L370.437,473.74L370.154,473.751L369.872,473.761L369.589,473.77L369.306,473.779L369.023,473.786L368.74,473.792L368.456,473.798L368.173,473.803L367.888,473.807L367.604,473.81L367.32,473.812L367.035,473.813L366.75,473.814L366.466,473.813L366.181,473.812L365.897,473.81L365.613,473.807L365.328,473.803L365.045,473.798L364.761,473.792L364.478,473.786L364.195,473.779L363.912,473.77L363.629,473.761L363.347,473.751L363.064,473.74L362.782,473.729L362.501,473.716L362.219,473.703L361.937,473.688L361.656,473.673L361.375,473.657L361.095,473.641L360.814,473.623L360.533,473.604L360.253,473.585L359.973,473.565L359.694,473.544L359.415,473.522L359.135,473.499L358.856,473.476L358.578,473.451L358.299,473.426L358.021,473.4L357.743,473.373L357.465,473.345L357.188,473.316L356.911,473.287L356.633,473.257L356.357,473.226L356.081,473.194L355.804,473.161L355.528,473.127L355.253,473.093L354.977,473.058L354.702,473.022L354.427,472.985L354.152,472.947L353.878,472.909L353.604,472.869L353.329,472.829L353.056,472.788L352.783,472.747L352.51,472.704L352.237,472.66L351.964,472.616L351.692,472.571L351.42,472.525L351.148,472.479L350.877,472.431L350.606,472.383L350.335,472.334L350.064,472.284L349.794,472.234L349.524,472.182L349.254,472.13L348.985,472.077L348.716,472.023L348.447,471.969L348.178,471.913L347.91,471.857L347.642,471.8L347.374,471.742L347.107,471.684L346.84,471.625L346.574,471.564L346.307,471.503L346.04,471.442L345.775,471.379L345.509,471.316L345.244,471.252L344.979,471.187L344.714,471.122L344.45,471.055L344.187,470.988L343.923,470.921L343.66,470.852L343.396,470.782L343.134,470.712L342.871,470.641L342.609,470.569L342.348,470.497L342.086,470.424L341.825,470.35L341.565,470.275L341.304,470.2L341.039,470.122L340.525,469.969L340.007,469.811L339.491,469.65L338.976,469.486L338.462,469.319L337.95,469.15L337.439,468.977L336.93,468.801L336.422,468.623L335.915,468.441L335.41,468.257L334.907,468.07L334.404,467.879L333.904,467.686L333.405,467.49L332.907,467.292L332.411,467.09L331.916,466.885L331.423,466.678L330.932,466.468L330.442,466.255L329.954,466.039L329.467,465.821L328.982,465.599L328.498,465.375L328.016,465.148L327.536,464.919L327.057,464.686L326.58,464.451L326.105,464.214L325.631,463.973L325.159,463.73L324.689,463.484L324.22,463.235L323.753,462.984L323.288,462.73L322.825,462.474L322.363,462.215L321.903,461.953L321.445,461.689L320.989,461.422L320.534,461.152L320.081,460.88L319.63,460.605L319.181,460.328L318.734,460.048L318.289,459.766L317.845,459.481L317.403,459.194L316.963,458.904L316.525,458.611L316.089,458.316L315.655,458.019L315.223,457.719L314.793,457.417L314.364,457.112L313.938,456.805L313.514,456.495L313.091,456.183L312.67,455.869L312.252,455.552L311.836,455.233L311.421,454.911L311.008,454.587L310.598,454.261L310.19,453.932L309.783,453.601L309.379,453.268L308.977,452.932L308.577,452.594L308.179,452.254L307.783,451.912L307.389,451.567L306.998,451.22L306.608,450.87L306.221,450.519L305.836,450.165L305.453,449.809L305.072,449.451L304.693,449.09L304.317,448.728L303.943,448.363L303.571,447.996L303.202,447.627L302.834,447.255L302.469,446.882L302.106,446.506L301.745,446.128L301.387,445.749L301.031,445.367L300.677,444.982L300.326,444.596L299.977,444.208L299.63,443.818L299.286,443.425L298.944,443.031L298.604,442.635L298.267,442.236L297.932,441.836L297.6,441.433L297.27,441.029L296.943,440.622L296.618,440.214L296.295,439.803L295.975,439.391L295.657,438.977L295.342,438.561L295.029,438.143L294.719,437.723L294.412,437.301L294.107,436.877L293.804,436.451L293.504,436.023L293.207,435.594L292.912,435.163L292.62,434.729L292.33,434.294L292.043,433.858L291.759,433.419L291.477,432.978L291.198,432.536L290.921,432.092L290.648,431.646L290.376,431.199L290.108,430.75L289.842,430.298L289.579,429.846L289.319,429.391L289.062,428.935L288.807,428.477L288.555,428.017L288.306,427.556L288.059,427.093L287.816,426.629L287.575,426.163L287.337,425.695L287.101,425.225L286.869,424.754L286.639,424.281L286.413,423.807L286.189,423.331L285.968,422.854L285.75,422.374L285.537,421.899L285.429,421.653L285.323,421.412L285.218,421.17L285.114,420.928L285.01,420.686L284.907,420.443L284.805,420.2L284.704,419.957L284.604,419.713L284.504,419.468L284.405,419.223L284.306,418.979L284.209,418.733L284.112,418.488L284.016,418.241L283.921,417.995L283.826,417.749L283.732,417.501L283.639,417.254L283.547,417.006L283.455,416.757L283.364,416.509L283.274,416.26L283.185,416.011L283.097,415.761L283.009,415.51L282.922,415.26L282.836,415.01L282.75,414.759L282.666,414.507L282.582,414.255L282.499,414.004L282.416,413.751L282.335,413.498L282.254,413.245L282.174,412.992L282.095,412.738L282.016,412.483L281.939,412.229L281.862,411.974L281.786,411.719L281.711,411.464L281.636,411.208L281.562,410.952L281.489,410.696L281.417,410.439L281.346,410.182L281.276,409.925L281.206,409.667L281.137,409.409L281.069,409.151L281.001,408.892L280.935,408.633L280.869,408.374L280.804,408.114L280.74,407.854L280.677,407.594L280.614,407.334L280.553,407.073L280.492,406.812L280.432,406.55L280.373,406.289L280.314,406.027L280.257,405.764L280.2,405.502L280.144,405.24L280.089,404.976L280.035,404.713L279.981,404.45L279.929,404.185L279.877,403.921L279.826,403.656L279.776,403.392L279.726,403.127L279.678,402.861L279.63,402.596L279.584,402.329L279.538,402.063L279.493,401.797L279.448,401.53L279.405,401.263L279.362,400.996L279.321,400.728L279.28,400.46L279.24,400.193L279.2,399.924L279.162,399.655L279.125,399.386L279.088,399.118L279.052,398.848L279.017,398.578L278.983,398.309L278.95,398.039L278.918,397.768L278.886,397.498L278.856,397.227L278.826,396.955L278.797,396.684L278.769,396.413L278.742,396.141L278.716,395.869L278.69,395.597L278.666,395.324L278.642,395.052L278.619,394.778L278.597,394.505L278.576,394.232L278.556,393.958L278.537,393.684L278.519,393.41L278.501,393.136L278.485,392.861L278.469,392.586L278.454,392.311L278.44,392.037L278.427,391.761L278.415,391.485L278.404,391.209L278.393,390.933L278.384,390.657L278.375,390.381L278.367,390.104L278.361,389.828L278.355,389.55L278.35,389.273L278.346,388.996L278.343,388.718L278.34,388.44L278.339,388.162L278.338,387.884L278.339,387.605L278.34,387.328L278.343,387.05L278.346,386.772L278.35,386.495L278.355,386.218L278.361,385.94L278.367,385.664L278.375,385.387L278.384,385.11L278.393,384.834L278.404,384.558L278.415,384.283L278.427,384.007L278.44,383.731L278.454,383.456L278.469,383.181L278.485,382.906L278.501,382.632L278.519,382.358L278.537,382.084L278.556,381.809L278.576,381.536L278.597,381.263L278.619,380.989L278.642,380.716L278.666,380.443L278.69,380.171L278.716,379.898L278.742,379.626L278.769,379.355L278.797,379.084L278.826,378.812L278.856,378.541L278.886,378.27L278.918,377.999L278.95,377.729L278.983,377.459L279.017,377.189L279.052,376.919L279.088,376.65L279.125,376.381L279.162,376.112L279.2,375.843L279.24,375.575L279.28,375.307L279.321,375.039L279.362,374.772L279.405,374.505L279.448,374.238L279.493,373.971L279.538,373.704L279.584,373.438L279.63,373.172L279.678,372.906L279.726,372.641L279.776,372.376L279.826,372.111L279.877,371.847L279.929,371.583L279.981,371.318L280.035,371.055L280.089,370.792L280.144,370.528L280.2,370.265L280.257,370.003L280.314,369.74L280.373,369.479L280.432,369.217L280.492,368.955L280.553,368.695L280.614,368.434L280.677,368.173L280.74,367.913L280.804,367.653L280.869,367.394L280.935,367.135L281.001,366.876L281.069,366.617L281.137,366.359L281.206,366.101L281.276,365.843L281.346,365.586L281.417,365.329L281.489,365.072L281.562,364.815L281.636,364.559L281.711,364.304L281.786,364.049L281.862,363.793L281.939,363.538L282.016,363.284L282.095,363.03L282.174,362.776L282.254,362.523L282.335,362.27L282.416,362.017L282.499,361.764L282.582,361.512L282.666,361.26L282.75,361.009L282.836,360.758L282.922,360.507L283.009,360.257L283.097,360.007L283.185,359.757L283.274,359.508L283.364,359.259L283.455,359.011L283.547,358.762L283.639,358.514L283.732,358.267L283.826,358.019L283.921,357.772L284.016,357.526L284.112,357.28L284.209,357.034L284.306,356.789L284.405,356.544L284.504,356.299L284.604,356.055L284.704,355.811L284.805,355.568L284.907,355.324L285.01,355.081L285.114,354.84L285.218,354.597L285.323,354.355L285.429,354.114L285.537,353.868L285.75,353.393L285.968,352.914L286.189,352.436L286.413,351.961L286.639,351.486L286.869,351.014L287.101,350.542L287.337,350.073L287.575,349.605L287.816,349.139L288.059,348.674L288.306,348.211L288.555,347.75L288.807,347.29L289.062,346.833L289.319,346.376L289.579,345.922L289.842,345.469L290.108,345.018L290.376,344.569L290.648,344.121L290.921,343.675L291.198,343.231L291.477,342.789L291.759,342.349L292.043,341.91L292.33,341.473L292.62,341.038L292.912,340.605L293.207,340.174L293.504,339.744L293.804,339.317L294.107,338.891L294.412,338.467L294.719,338.045L295.029,337.625L295.342,337.207L295.657,336.791L295.975,336.376L296.295,335.964L296.618,335.554L296.943,335.145L297.27,334.739L297.6,334.334L297.932,333.932L298.267,333.531L298.604,333.133L298.944,332.737L299.286,332.342L299.63,331.95L299.977,331.559L300.326,331.171L300.677,330.785L301.031,330.401L301.387,330.019L301.745,329.639L302.106,329.262L302.469,328.886L302.834,328.512L303.202,328.141L303.571,327.772L303.943,327.405L304.317,327.04L304.693,326.677L305.072,326.317L305.453,325.959L305.836,325.603L306.221,325.249L306.608,324.897L306.998,324.548L307.389,324.201L307.783,323.856L308.179,323.514L308.577,323.173L308.977,322.835L309.379,322.5L309.783,322.166L310.19,321.835L310.598,321.507L311.008,321.18L311.421,320.856L311.836,320.535L312.252,320.215L312.67,319.899L313.091,319.584L313.514,319.272L313.938,318.963L314.364,318.655L314.793,318.351L315.223,318.048L315.655,317.748L316.089,317.451L316.525,317.156L316.963,316.864L317.403,316.574L317.845,316.287L318.289,316.002L318.734,315.719L319.181,315.439L319.63,315.162L320.081,314.888L320.534,314.615L320.989,314.346L321.445,314.079L321.903,313.815L322.363,313.553L322.825,313.294L323.288,313.037L323.753,312.783L324.22,312.532L324.689,312.284L325.159,312.038L325.631,311.795L326.105,311.554L326.58,311.316L327.057,311.081L327.536,310.849L328.016,310.619L328.498,310.393L328.982,310.168L329.467,309.947L329.954,309.728L330.442,309.513L330.932,309.3L331.423,309.09L331.916,308.882L332.411,308.678L332.907,308.476L333.405,308.277L333.904,308.081L334.404,307.888L334.907,307.698L335.41,307.511L335.915,307.326L336.422,307.145L336.93,306.966L337.439,306.791L337.95,306.618L338.462,306.448L338.976,306.281L339.491,306.118L340.007,305.957L340.525,305.799L341.039,305.646L341.304,305.568L341.565,305.492L341.825,305.418L342.086,305.344L342.348,305.27L342.609,305.198L342.871,305.126L343.134,305.055L343.396,304.985L343.66,304.916L343.923,304.847L344.187,304.779L344.45,304.712L344.714,304.646L344.979,304.58L345.244,304.516L345.509,304.451L345.775,304.388L346.04,304.326L346.307,304.264L346.574,304.203L346.84,304.143L347.107,304.084L347.374,304.025L347.642,303.967L347.91,303.911L348.178,303.854L348.447,303.799L348.716,303.744L348.985,303.691L349.254,303.638L349.524,303.585L349.794,303.534L350.064,303.483L350.335,303.433L350.606,303.384L350.877,303.336L351.148,303.289L351.42,303.242L351.692,303.196L351.964,303.151L352.237,303.107L352.51,303.064L352.783,303.021L353.056,302.979L353.329,302.938L353.604,302.898L353.878,302.859L354.152,302.82L354.427,302.783L354.702,302.746L354.977,302.71L355.253,302.675L355.528,302.64L355.804,302.607L356.081,302.574L356.357,302.542L356.633,302.511L356.911,302.481L357.188,302.451L357.465,302.423L357.743,302.395L358.021,302.368L358.299,302.342L358.578,302.316L358.856,302.292L359.135,302.268L359.415,302.246L359.694,302.224L359.973,302.203L360.253,302.183L360.533,302.163L360.814,302.145L361.095,302.127L361.375,302.11L361.656,302.094L361.937,302.079L362.219,302.065L362.501,302.051L362.782,302.039L363.064,302.027L363.347,302.016L363.629,302.006L363.912,301.997L364.195,301.989L364.478,301.982L364.761,301.975L365.045,301.97L365.328,301.965L365.613,301.961L365.897,301.958L366.181,301.956L366.466,301.954L366.75,301.954L367.035,301.954ZM366.512,316.954L366.273,316.955L366.035,316.957L365.796,316.96L365.559,316.963L365.321,316.967L365.084,316.972L364.847,316.977L364.609,316.983L364.372,316.99L364.136,316.998L363.899,317.006L363.663,317.015L363.427,317.025L363.19,317.036L362.955,317.047L362.72,317.059L362.484,317.071L362.249,317.085L362.014,317.099L361.779,317.114L361.545,317.129L361.311,317.145L361.077,317.162L360.843,317.18L360.609,317.198L360.376,317.217L360.143,317.237L359.91,317.257L359.678,317.278L359.445,317.3L359.212,317.323L358.981,317.346L358.749,317.37L358.517,317.394L358.286,317.42L358.054,317.446L357.823,317.472L357.593,317.5L357.363,317.528L357.132,317.556L356.902,317.586L356.673,317.616L356.443,317.647L356.214,317.678L355.985,317.71L355.756,317.743L355.528,317.777L355.299,317.811L355.071,317.846L354.843,317.881L354.616,317.917L354.388,317.954L354.161,317.992L353.934,318.03L353.708,318.069L353.481,318.108L353.255,318.149L353.029,318.189L352.804,318.231L352.578,318.273L352.353,318.316L352.128,318.36L351.903,318.404L351.678,318.449L351.454,318.494L351.231,318.54L351.007,318.587L350.784,318.635L350.561,318.683L350.338,318.732L350.115,318.781L349.893,318.831L349.671,318.882L349.45,318.933L349.228,318.985L349.006,319.038L348.786,319.091L348.565,319.145L348.344,319.2L348.124,319.255L347.904,319.311L347.684,319.368L347.465,319.425L347.246,319.483L347.027,319.541L346.809,319.6L346.591,319.66L346.372,319.721L346.155,319.781L345.938,319.843L345.72,319.905L345.504,319.968L345.293,320.03L344.855,320.161L344.424,320.292L343.994,320.426L343.565,320.562L343.138,320.701L342.711,320.842L342.286,320.986L341.862,321.132L341.439,321.281L341.017,321.432L340.597,321.585L340.178,321.741L339.76,321.9L339.343,322.06L338.928,322.223L338.514,322.389L338.101,322.557L337.69,322.727L337.28,322.899L336.871,323.074L336.463,323.251L336.057,323.431L335.652,323.613L335.248,323.797L334.846,323.983L334.445,324.172L334.046,324.363L333.647,324.556L333.251,324.752L332.855,324.949L332.461,325.149L332.069,325.352L331.678,325.556L331.288,325.763L330.9,325.972L330.513,326.183L330.128,326.396L329.744,326.611L329.361,326.829L328.981,327.049L328.601,327.271L328.223,327.495L327.847,327.721L327.472,327.949L327.099,328.18L326.727,328.412L326.357,328.647L325.988,328.884L325.621,329.123L325.255,329.364L324.891,329.607L324.529,329.852L324.168,330.099L323.809,330.348L323.452,330.599L323.096,330.852L322.742,331.107L322.389,331.365L322.038,331.624L321.689,331.885L321.341,332.148L320.995,332.413L320.651,332.68L320.309,332.949L319.968,333.22L319.629,333.493L319.292,333.768L318.956,334.044L318.623,334.323L318.291,334.603L317.961,334.886L317.632,335.17L317.305,335.456L316.98,335.744L316.657,336.034L316.336,336.325L316.017,336.619L315.699,336.914L315.383,337.211L315.069,337.51L314.757,337.811L314.447,338.113L314.139,338.417L313.832,338.723L313.528,339.031L313.226,339.34L312.925,339.652L312.626,339.965L312.329,340.279L312.034,340.595L311.742,340.914L311.451,341.233L311.162,341.555L310.875,341.878L310.59,342.202L310.307,342.529L310.026,342.857L309.747,343.187L309.47,343.518L309.195,343.851L308.922,344.185L308.651,344.521L308.382,344.859L308.116,345.198L307.851,345.539L307.589,345.882L307.328,346.225L307.07,346.571L306.814,346.918L306.56,347.267L306.308,347.617L306.058,347.968L305.81,348.321L305.565,348.676L305.321,349.032L305.08,349.389L304.841,349.748L304.604,350.109L304.37,350.47L304.138,350.833L303.907,351.198L303.679,351.564L303.454,351.932L303.23,352.301L303.009,352.671L302.79,353.043L302.573,353.416L302.359,353.79L302.147,354.166L301.937,354.543L301.73,354.921L301.524,355.301L301.322,355.682L301.121,356.065L300.923,356.448L300.727,356.833L300.533,357.22L300.342,357.607L300.154,357.996L299.967,358.386L299.783,358.777L299.601,359.17L299.422,359.563L299.243,359.964L299.158,360.156L299.071,360.355L298.985,360.553L298.899,360.752L298.814,360.952L298.73,361.151L298.646,361.35L298.563,361.551L298.48,361.751L298.398,361.951L298.317,362.152L298.236,362.353L298.156,362.555L298.076,362.757L297.997,362.959L297.919,363.162L297.841,363.364L297.764,363.567L297.688,363.77L297.612,363.974L297.537,364.177L297.463,364.382L297.389,364.586L297.315,364.791L297.243,364.996L297.171,365.201L297.099,365.406L297.029,365.612L296.958,365.818L296.889,366.025L296.82,366.231L296.752,366.438L296.684,366.645L296.618,366.852L296.551,367.06L296.486,367.268L296.421,367.476L296.356,367.685L296.293,367.893L296.23,368.103L296.167,368.312L296.105,368.521L296.044,368.731L295.984,368.941L295.924,369.152L295.865,369.362L295.806,369.573L295.748,369.784L295.691,369.995L295.635,370.207L295.579,370.419L295.524,370.631L295.469,370.843L295.415,371.056L295.362,371.269L295.31,371.482L295.258,371.695L295.206,371.909L295.156,372.123L295.106,372.337L295.057,372.551L295.008,372.766L294.96,372.981L294.913,373.195L294.866,373.411L294.821,373.627L294.775,373.842L294.731,374.058L294.687,374.275L294.644,374.491L294.601,374.708L294.56,374.925L294.519,375.142L294.478,375.36L294.438,375.577L294.399,375.795L294.361,376.013L294.323,376.232L294.286,376.45L294.25,376.669L294.214,376.888L294.179,377.107L294.145,377.327L294.112,377.547L294.079,377.767L294.047,377.987L294.015,378.207L293.984,378.428L293.954,378.649L293.925,378.87L293.896,379.091L293.868,379.313L293.841,379.535L293.814,379.756L293.789,379.978L293.764,380.201L293.739,380.423L293.715,380.646L293.692,380.869L293.67,381.093L293.649,381.316L293.628,381.539L293.608,381.763L293.588,381.988L293.569,382.212L293.551,382.436L293.534,382.661L293.518,382.886L293.502,383.111L293.487,383.336L293.472,383.562L293.459,383.788L293.446,384.013L293.434,384.239L293.422,384.466L293.411,384.692L293.401,384.919L293.392,385.146L293.384,385.373L293.376,385.6L293.369,385.828L293.362,386.055L293.357,386.284L293.352,386.511L293.348,386.739L293.344,386.968L293.342,387.197L293.34,387.425L293.339,387.655L293.338,387.884L293.339,388.113L293.34,388.342L293.342,388.571L293.344,388.799L293.348,389.028L293.352,389.256L293.357,389.484L293.362,389.712L293.369,389.94L293.376,390.167L293.384,390.395L293.392,390.622L293.401,390.849L293.411,391.075L293.422,391.301L293.434,391.528L293.446,391.755L293.459,391.98L293.472,392.206L293.487,392.432L293.502,392.657L293.518,392.881L293.534,393.107L293.551,393.332L293.569,393.556L293.588,393.78L293.608,394.004L293.628,394.228L293.649,394.451L293.67,394.675L293.692,394.898L293.715,395.122L293.739,395.344L293.764,395.567L293.789,395.789L293.814,396.011L293.841,396.233L293.868,396.455L293.896,396.677L293.925,396.898L293.954,397.118L293.984,397.34L294.015,397.561L294.047,397.781L294.079,398.001L294.112,398.221L294.145,398.441L294.179,398.66L294.214,398.88L294.25,399.099L294.286,399.317L294.323,399.536L294.361,399.755L294.399,399.972L294.438,400.19L294.478,400.408L294.519,400.625L294.56,400.843L294.601,401.06L294.644,401.277L294.687,401.493L294.731,401.709L294.775,401.926L294.821,402.141L294.866,402.356L294.913,402.572L294.96,402.787L295.008,403.002L295.057,403.217L295.106,403.431L295.156,403.645L295.206,403.859L295.258,404.072L295.31,404.286L295.362,404.499L295.415,404.712L295.469,404.924L295.524,405.137L295.579,405.349L295.635,405.561L295.691,405.772L295.748,405.983L295.806,406.195L295.865,406.406L295.924,406.616L295.984,406.826L296.044,407.036L296.105,407.246L296.167,407.456L296.23,407.665L296.293,407.874L296.356,408.083L296.421,408.291L296.486,408.499L296.551,408.707L296.618,408.915L296.684,409.122L296.752,409.329L296.82,409.537L296.889,409.743L296.958,409.949L297.029,410.155L297.099,410.361L297.171,410.567L297.243,410.772L297.315,410.977L297.389,411.182L297.463,411.386L297.537,411.59L297.612,411.794L297.688,411.997L297.764,412.2L297.841,412.403L297.919,412.606L297.997,412.809L298.076,413.01L298.156,413.213L298.236,413.414L298.317,413.615L298.398,413.816L298.48,414.016L298.563,414.217L298.646,414.417L298.73,414.617L298.814,414.816L298.899,415.016L298.985,415.214L299.071,415.413L299.158,415.611L299.243,415.804L299.422,416.204L299.601,416.598L299.783,416.99L299.967,417.382L300.154,417.772L300.342,418.161L300.533,418.548L300.727,418.934L300.923,419.319L301.121,419.703L301.322,420.085L301.524,420.466L301.73,420.846L301.937,421.224L302.147,421.602L302.359,421.977L302.573,422.352L302.79,422.725L303.009,423.096L303.23,423.467L303.454,423.836L303.679,424.203L303.907,424.569L304.138,424.934L304.37,425.297L304.604,425.659L304.841,426.019L305.08,426.378L305.321,426.736L305.565,427.092L305.81,427.447L306.058,427.799L306.308,428.151L306.56,428.501L306.814,428.85L307.07,429.197L307.328,429.542L307.589,429.886L307.851,430.228L308.116,430.569L308.382,430.909L308.651,431.246L308.922,431.582L309.195,431.917L309.47,432.25L309.747,432.581L310.026,432.911L310.307,433.239L310.59,433.565L310.875,433.89L311.162,434.213L311.451,434.534L311.742,434.854L312.034,435.172L312.329,435.488L312.626,435.803L312.925,436.116L313.226,436.427L313.528,436.737L313.832,437.044L314.139,437.35L314.447,437.654L314.757,437.957L315.069,438.258L315.383,438.557L315.699,438.853L316.017,439.149L316.336,439.442L316.657,439.734L316.98,440.024L317.305,440.312L317.632,440.598L317.961,440.882L318.291,441.164L318.623,441.445L318.956,441.723L319.292,442L319.629,442.275L319.968,442.548L320.309,442.819L320.651,443.087L320.995,443.354L321.341,443.62L321.689,443.883L322.038,444.144L322.389,444.403L322.742,444.66L323.096,444.915L323.452,445.169L323.809,445.42L324.168,445.669L324.529,445.916L324.891,446.161L325.255,446.404L325.621,446.645L325.988,446.884L326.357,447.12L326.727,447.355L327.099,447.588L327.472,447.818L327.847,448.047L328.223,448.273L328.601,448.497L328.981,448.719L329.361,448.939L329.744,449.156L330.128,449.372L330.513,449.585L330.9,449.796L331.288,450.005L331.678,450.212L332.069,450.416L332.461,450.618L332.855,450.818L333.251,451.016L333.647,451.212L334.046,451.405L334.445,451.596L334.846,451.785L335.248,451.971L335.652,452.155L336.057,452.337L336.463,452.516L336.871,452.693L337.28,452.868L337.69,453.041L338.101,453.211L338.514,453.379L338.928,453.544L339.343,453.707L339.76,453.868L340.178,454.026L340.597,454.182L341.017,454.336L341.439,454.487L341.862,454.635L342.286,454.781L342.711,454.925L343.138,455.067L343.565,455.205L343.994,455.342L344.424,455.476L344.855,455.607L345.293,455.738L345.504,455.8L345.72,455.862L345.938,455.925L346.155,455.986L346.372,456.047L346.591,456.108L346.809,456.167L347.027,456.226L347.246,456.285L347.465,456.343L347.684,456.4L347.904,456.456L348.124,456.512L348.344,456.568L348.565,456.622L348.786,456.676L349.006,456.729L349.228,456.782L349.45,456.834L349.671,456.886L349.893,456.936L350.115,456.986L350.338,457.036L350.561,457.085L350.784,457.133L351.007,457.18L351.231,457.227L351.455,457.273L351.678,457.319L351.903,457.364L352.128,457.408L352.353,457.451L352.578,457.494L352.804,457.537L353.029,457.578L353.255,457.619L353.481,457.659L353.708,457.699L353.934,457.738L354.161,457.776L354.388,457.813L354.616,457.85L354.843,457.886L355.071,457.922L355.299,457.957L355.528,457.991L355.756,458.025L355.985,458.057L356.214,458.089L356.443,458.121L356.673,458.152L356.902,458.182L357.132,458.211L357.363,458.24L357.593,458.268L357.823,458.295L358.054,458.322L358.286,458.348L358.517,458.373L358.749,458.398L358.981,458.422L359.212,458.445L359.445,458.467L359.678,458.489L359.91,458.51L360.143,458.531L360.376,458.55L360.609,458.569L360.843,458.588L361.077,458.605L361.311,458.622L361.545,458.639L361.779,458.654L362.014,458.669L362.249,458.683L362.485,458.696L362.72,458.709L362.954,458.721L363.19,458.732L363.427,458.743L363.663,458.752L363.899,458.761L364.136,458.77L364.372,458.777L364.609,458.784L364.846,458.79L365.084,458.796L365.321,458.801L365.559,458.805L365.796,458.808L366.035,458.81L366.273,458.812L366.512,458.813L366.75,458.814L366.989,458.813L367.228,458.812L367.466,458.81L367.705,458.808L367.942,458.805L368.18,458.801L368.417,458.796L368.655,458.79L368.892,458.784L369.129,458.777L369.365,458.77L369.602,458.761L369.838,458.752L370.074,458.743L370.311,458.732L370.547,458.721L370.781,458.709L371.017,458.696L371.252,458.683L371.487,458.669L371.722,458.654L371.956,458.639L372.19,458.622L372.424,458.605L372.658,458.588L372.892,458.569L373.125,458.55L373.358,458.531L373.591,458.51L373.824,458.489L374.056,458.467L374.289,458.445L374.521,458.422L374.753,458.398L374.984,458.373L375.215,458.348L375.447,458.322L375.678,458.295L375.908,458.268L376.138,458.24L376.369,458.211L376.599,458.182L376.828,458.152L377.058,458.121L377.288,458.089L377.516,458.057L377.745,458.025L377.974,457.991L378.202,457.957L378.431,457.922L378.659,457.886L378.886,457.85L379.113,457.813L379.34,457.776L379.567,457.738L379.794,457.699L380.02,457.659L380.247,457.619L380.472,457.578L380.698,457.537L380.923,457.494L381.148,457.451L381.373,457.408L381.598,457.364L381.823,457.319L382.046,457.273L382.27,457.227L382.494,457.18L382.717,457.133L382.94,457.085L383.163,457.036L383.386,456.986L383.609,456.936L383.83,456.886L384.052,456.834L384.274,456.782L384.495,456.729L384.716,456.676L384.937,456.622L385.157,456.568L385.377,456.512L385.597,456.456L385.817,456.4L386.036,456.343L386.255,456.285L386.474,456.226L386.692,456.167L386.911,456.108L387.129,456.047L387.346,455.986L387.564,455.925L387.781,455.862L387.997,455.8L388.209,455.738L388.647,455.607L389.078,455.476L389.508,455.342L389.936,455.205L390.364,455.067L390.79,454.925L391.216,454.781L391.64,454.635L392.062,454.487L392.484,454.336L392.904,454.182L393.323,454.026L393.741,453.868L394.158,453.707L394.573,453.544L394.987,453.379L395.4,453.211L395.812,453.041L396.222,452.868L396.631,452.694L397.038,452.516L397.445,452.337L397.85,452.155L398.253,451.971L398.655,451.785L399.056,451.596L399.456,451.405L399.854,451.211L400.251,451.016L400.646,450.818L401.04,450.618L401.433,450.416L401.824,450.212L402.213,450.005L402.602,449.796L402.988,449.585L403.374,449.372L403.758,449.156L404.14,448.939L404.521,448.719L404.9,448.497L405.278,448.273L405.655,448.047L406.029,447.818L406.403,447.588L406.775,447.355L407.145,447.12L407.514,446.884L407.88,446.645L408.246,446.404L408.61,446.161L408.972,445.916L409.333,445.669L409.692,445.42L410.049,445.169L410.406,444.915L410.76,444.66L411.112,444.403L411.463,444.144L411.812,443.883L412.16,443.62L412.506,443.354L412.85,443.088L413.192,442.819L413.533,442.548L413.872,442.275L414.21,442L414.545,441.723L414.879,441.445L415.211,441.164L415.541,440.882L415.87,440.598L416.196,440.312L416.521,440.024L416.844,439.734L417.165,439.443L417.485,439.149L417.803,438.853L418.118,438.557L418.432,438.258L418.744,437.957L419.054,437.654L419.362,437.35L419.669,437.044L419.973,436.737L420.276,436.427L420.576,436.116L420.875,435.803L421.172,435.488L421.467,435.172L421.76,434.854L422.051,434.534L422.34,434.213L422.627,433.89L422.912,433.565L423.195,433.239L423.476,432.911L423.755,432.581L424.031,432.25L424.306,431.917L424.579,431.582L424.85,431.246L425.119,430.909L425.385,430.569L425.65,430.228L425.913,429.886L426.173,429.542L426.431,429.197L426.688,428.85L426.942,428.501L427.194,428.151L427.443,427.799L427.691,427.446L427.937,427.092L428.18,426.736L428.421,426.378L428.66,426.02L428.897,425.659L429.131,425.297L429.364,424.934L429.594,424.569L429.822,424.203L430.048,423.836L430.271,423.467L430.492,423.097L430.711,422.725L430.928,422.352L431.142,421.977L431.354,421.602L431.564,421.225L431.772,420.846L431.977,420.466L432.18,420.085L432.38,419.703L432.578,419.319L432.774,418.934L432.968,418.548L433.159,418.161L433.348,417.772L433.534,417.382L433.718,416.99L433.9,416.598L434.079,416.204L434.258,415.804L434.343,415.612L434.43,415.413L434.516,415.214L434.602,415.016L434.687,414.816L434.771,414.617L434.855,414.417L434.938,414.217L435.021,414.017L435.103,413.816L435.185,413.615L435.265,413.414L435.345,413.213L435.425,413.01L435.504,412.809L435.582,412.606L435.66,412.404L435.737,412.201L435.813,411.997L435.889,411.794L435.964,411.59L436.039,411.386L436.113,411.181L436.186,410.977L436.258,410.772L436.33,410.567L436.402,410.361L436.472,410.155L436.542,409.95L436.612,409.743L436.681,409.536L436.749,409.329L436.817,409.123L436.883,408.915L436.95,408.707L437.015,408.5L437.08,408.291L437.145,408.083L437.208,407.874L437.272,407.665L437.334,407.456L437.396,407.246L437.457,407.037L437.517,406.827L437.577,406.616L437.636,406.406L437.695,406.195L437.752,405.984L437.81,405.772L437.866,405.561L437.922,405.349L437.977,405.136L438.032,404.924L438.086,404.712L438.139,404.499L438.192,404.286L438.243,404.073L438.295,403.859L438.345,403.645L438.395,403.431L438.444,403.217L438.493,403.002L438.541,402.787L438.588,402.572L438.634,402.357L438.68,402.141L438.726,401.925L438.77,401.709L438.814,401.493L438.857,401.277L438.9,401.06L438.941,400.843L438.983,400.625L439.023,400.408L439.063,400.191L439.102,399.972L439.14,399.754L439.178,399.536L439.215,399.318L439.251,399.099L439.287,398.879L439.322,398.66L439.356,398.441L439.389,398.221L439.422,398.001L439.454,397.781L439.486,397.56L439.517,397.339L439.547,397.119L439.576,396.898L439.605,396.677L439.633,396.455L439.66,396.233L439.686,396.012L439.712,395.789L439.737,395.567L439.762,395.344L439.786,395.122L439.809,394.899L439.831,394.675L439.852,394.451L439.873,394.228L439.893,394.004L439.913,393.78L439.932,393.556L439.95,393.332L439.967,393.107L439.983,392.881L439.999,392.657L440.014,392.432L440.029,392.206L440.042,391.98L440.055,391.755L440.067,391.528L440.079,391.301L440.09,391.075L440.1,390.849L440.109,390.622L440.117,390.395L440.125,390.167L440.132,389.94L440.139,389.712L440.144,389.484L440.149,389.256L440.153,389.028L440.157,388.799L440.159,388.571L440.161,388.342L440.162,388.113L440.162,387.884L440.162,387.654L440.161,387.425L440.159,387.197L440.157,386.968L440.153,386.739L440.149,386.511L440.144,386.284L440.139,386.055L440.132,385.828L440.125,385.6L440.117,385.373L440.109,385.146L440.1,384.919L440.09,384.692L440.079,384.466L440.067,384.239L440.055,384.013L440.042,383.788L440.029,383.562L440.014,383.336L439.999,383.111L439.983,382.886L439.967,382.661L439.95,382.436L439.932,382.212L439.913,381.988L439.893,381.763L439.873,381.539L439.852,381.316L439.831,381.093L439.809,380.869L439.786,380.646L439.762,380.424L439.737,380.201L439.712,379.978L439.686,379.756L439.66,379.535L439.633,379.313L439.605,379.091L439.576,378.87L439.547,378.649L439.517,378.428L439.486,378.207L439.454,377.987L439.422,377.766L439.389,377.547L439.356,377.327L439.322,377.107L439.287,376.888L439.251,376.669L439.215,376.45L439.178,376.232L439.14,376.014L439.102,375.795L439.063,375.577L439.023,375.36L438.983,375.142L438.941,374.925L438.9,374.708L438.857,374.491L438.814,374.274L438.77,374.058L438.726,373.842L438.68,373.627L438.634,373.411L438.588,373.196L438.541,372.981L438.493,372.766L438.444,372.551L438.395,372.337L438.345,372.123L438.295,371.909L438.243,371.695L438.192,371.482L438.139,371.269L438.086,371.056L438.032,370.843L437.977,370.631L437.922,370.419L437.866,370.207L437.81,369.995L437.752,369.784L437.695,369.573L437.636,369.362L437.577,369.152L437.517,368.941L437.457,368.731L437.396,368.521L437.334,368.312L437.272,368.103L437.208,367.893L437.145,367.685L437.08,367.476L437.015,367.268L436.95,367.06L436.883,366.852L436.817,366.645L436.749,366.438L436.681,366.231L436.612,366.025L436.542,365.818L436.472,365.612L436.402,365.406L436.33,365.201L436.258,364.996L436.186,364.791L436.113,364.586L436.039,364.382L435.964,364.177L435.889,363.974L435.813,363.77L435.737,363.567L435.66,363.364L435.582,363.162L435.504,362.959L435.425,362.757L435.345,362.555L435.265,362.353L435.185,362.153L435.103,361.952L435.021,361.751L434.938,361.55L434.855,361.35L434.771,361.151L434.687,360.952L434.602,360.752L434.516,360.553L434.43,360.355L434.343,360.156L434.258,359.964L434.079,359.564L433.9,359.17L433.718,358.777L433.534,358.386L433.348,357.996L433.159,357.607L432.968,357.219L432.774,356.833L432.578,356.448L432.38,356.065L432.18,355.682L431.977,355.301L431.772,354.921L431.564,354.543L431.354,354.166L431.142,353.79L430.928,353.416L430.711,353.043L430.492,352.671L430.271,352.301L430.048,351.932L429.822,351.564L429.594,351.198L429.364,350.834L429.131,350.47L428.897,350.108L428.66,349.748L428.421,349.389L428.18,349.032L427.937,348.676L427.691,348.321L427.443,347.968L427.194,347.617L426.942,347.266L426.688,346.918L426.431,346.571L426.173,346.225L425.913,345.882L425.65,345.539L425.385,345.198L425.119,344.859L424.85,344.521L424.579,344.185L424.306,343.851L424.031,343.518L423.755,343.187L423.476,342.857L423.195,342.529L422.912,342.202L422.627,341.878L422.34,341.555L422.051,341.233L421.76,340.914L421.467,340.595L421.172,340.279L420.875,339.965L420.576,339.651L420.276,339.34L419.973,339.031L419.669,338.723L419.362,338.417L419.054,338.113L418.744,337.811L418.432,337.51L418.118,337.211L417.803,336.914L417.485,336.619L417.165,336.325L416.844,336.034L416.521,335.744L416.196,335.456L415.87,335.17L415.541,334.886L415.211,334.603L414.879,334.323L414.545,334.044L414.21,333.768L413.872,333.493L413.533,333.22L413.192,332.949L412.85,332.68L412.506,332.413L412.16,332.148L411.812,331.885L411.463,331.624L411.112,331.365L410.76,331.107L410.406,330.852L410.049,330.599L409.692,330.348L409.333,330.099L408.972,329.852L408.61,329.607L408.246,329.364L407.88,329.123L407.514,328.884L407.145,328.647L406.775,328.412L406.403,328.18L406.029,327.949L405.655,327.721L405.278,327.495L404.9,327.271L404.521,327.049L404.14,326.829L403.758,326.611L403.374,326.396L402.988,326.183L402.602,325.972L402.214,325.763L401.824,325.556L401.433,325.352L401.04,325.149L400.646,324.949L400.251,324.752L399.854,324.556L399.456,324.363L399.056,324.172L398.655,323.983L398.253,323.797L397.85,323.613L397.445,323.431L397.038,323.251L396.631,323.074L396.222,322.899L395.812,322.727L395.4,322.557L394.987,322.389L394.573,322.223L394.158,322.06L393.741,321.9L393.323,321.741L392.904,321.585L392.484,321.432L392.062,321.281L391.64,321.132L391.216,320.986L390.79,320.842L390.364,320.701L389.936,320.562L389.508,320.426L389.078,320.292L388.647,320.161L388.209,320.03L387.997,319.968L387.781,319.905L387.564,319.843L387.346,319.781L387.129,319.721L386.911,319.66L386.692,319.6L386.474,319.541L386.255,319.483L386.036,319.425L385.817,319.368L385.597,319.311L385.377,319.255L385.157,319.2L384.937,319.145L384.716,319.091L384.495,319.038L384.274,318.985L384.052,318.933L383.83,318.882L383.609,318.831L383.386,318.781L383.163,318.732L382.94,318.683L382.717,318.635L382.494,318.587L382.27,318.54L382.047,318.494L381.823,318.449L381.598,318.404L381.373,318.36L381.148,318.316L380.923,318.273L380.698,318.231L380.472,318.189L380.247,318.149L380.02,318.108L379.794,318.069L379.567,318.03L379.34,317.992L379.113,317.954L378.886,317.917L378.659,317.881L378.431,317.846L378.202,317.811L377.974,317.777L377.745,317.743L377.516,317.71L377.288,317.678L377.058,317.647L376.828,317.616L376.599,317.586L376.369,317.556L376.138,317.528L375.908,317.5L375.678,317.472L375.447,317.446L375.215,317.42L374.984,317.394L374.753,317.37L374.521,317.346L374.289,317.323L374.056,317.3L373.824,317.278L373.591,317.257L373.358,317.237L373.125,317.217L372.892,317.198L372.658,317.18L372.424,317.162L372.19,317.145L371.956,317.129L371.722,317.114L371.487,317.099L371.252,317.085L371.017,317.071L370.781,317.059L370.546,317.047L370.311,317.036L370.074,317.025L369.838,317.015L369.602,317.006L369.365,316.998L369.129,316.99L368.892,316.983L368.655,316.977L368.417,316.972L368.18,316.967L367.942,316.963L367.705,316.96L367.466,316.957L367.228,316.955L366.989,316.954L366.75,316.954L366.512,316.954Z" style="fill:rgb(27,170,229);"/>
            <path d="M371,352C371,357.799 366.299,362.5 360.5,362.5C354.701,362.5 350,357.799 350,352C350,346.201 354.701,341.5 360.5,341.5C366.299,341.5 371,346.201 371,352" style="fill:rgb(27,170,229);fill-rule:nonzero;"/>
            <path d="M329.5,424C329.5,425.657 328.045,427 326.25,427C324.455,427 323,425.657 323,424C323,422.343 324.455,421 326.25,421C328.045,421 329.5,422.343 329.5,424" style="fill:rgb(247,247,247);fill-rule:nonzero;"/>
            <path d="M355.5,438.25C355.5,442.53 351.918,446 347.5,446C343.082,446 339.5,442.53 339.5,438.25C339.5,433.97 343.082,430.5 347.5,430.5C351.918,430.5 355.5,433.97 355.5,438.25" style="fill:rgb(247,247,247);fill-rule:nonzero;"/>
            <path d="M331.5,442.25C331.5,445.15 329.373,447.5 326.75,447.5C324.127,447.5 322,445.15 322,442.25C322,439.35 324.127,437 326.75,437C329.373,437 331.5,439.35 331.5,442.25" style="fill:rgb(247,247,247);fill-rule:nonzero;"/>
            <path d="M423.5,362.5C423.5,370.508 416.896,377 408.75,377C400.604,377 394,370.508 394,362.5C394,354.492 400.604,348 408.75,348C416.896,348 423.5,354.492 423.5,362.5" style="fill:rgb(27,170,229);fill-rule:nonzero;"/>
            <path d="M401.115,354.753C401.115,354.753 407.175,348.275 413.862,353.081C413.862,353.081 417.624,356.425 416.161,358.932C414.698,361.44 412.178,357.266 407.184,358.514C407.184,358.514 402.996,359.35 402.369,362.067C401.742,364.784 398.398,363.739 398.189,361.022C397.98,358.305 401.115,354.753 401.115,354.753" style="fill:white;fill-rule:nonzero;"/>
            <path d="M353.016,354.712C353.016,354.712 351.127,351.478 353.879,349.352C353.879,349.352 355.686,348.234 356.524,349.129C357.362,350.023 355.369,350.539 355.271,352.711C355.271,352.711 355.103,354.506 356.127,355.088C357.15,355.669 356.324,356.896 355.199,356.653C354.075,356.409 353.016,354.712 353.016,354.712" style="fill:white;fill-rule:nonzero;"/>
            <rect x="325.104" y="353.083" width="3" height="13.144" style="fill:rgb(27,170,229);"/>
            <rect x="330.355" y="368.532" width="13.144" height="3" style="fill:rgb(27,170,229);"/>
            <rect x="309.396" y="368.602" width="13.144" height="3" style="fill:rgb(27,170,229);"/>
            <rect x="325.05" y="373.846" width="3" height="13.144" style="fill:rgb(27,170,229);"/>
            <path d="M336.082,362.711L330.36,368.433L328.238,366.312L333.96,360.59L336.082,362.711Z" style="fill:rgb(27,170,229);"/>
            <path d="M324.853,373.772L319.336,379.693L317.141,377.648L322.658,371.727L324.853,373.772Z" style="fill:rgb(27,170,229);"/>
            <path d="M335.831,377.718L333.61,379.734L328.172,373.741L330.393,371.725L335.831,377.718Z" style="fill:rgb(27,170,229);"/>
            <path d="M324.783,366.331L322.562,368.347L317.124,362.354L319.345,360.338L324.783,366.331Z" style="fill:rgb(27,170,229);"/>
            <path d="M482.348,387.872C482.348,391.075 479.87,393.671 476.813,393.671C473.755,393.671 471.277,391.075 471.277,387.872C471.277,384.669 473.755,382.073 476.813,382.073C479.87,382.073 482.348,384.669 482.348,387.872" style="fill:rgb(27,170,229);fill-rule:nonzero;"/>
            <g transform="matrix(0.439223,0.898378,-0.898378,0.439223,0,0)">
                <text x="494.99px" y="-27.191px" style="font-family:'Interstate-Bold';font-weight:700;font-size:43px;fill:rgb(27,170,229);">L</text>
            </g>
            <g transform="matrix(0.635879,0.771789,-0.771789,0.635879,0,0)">
                <text x="514.533px" y="95.132px" style="font-family:'Interstate-Bold';font-weight:700;font-size:43px;fill:rgb(27,170,229);">A</text>
            </g>
            <g transform="matrix(0.808783,0.588107,-0.588107,0.808783,0,0)">
                <text x="506.994px" y="229.069px" style="font-family:'Interstate-Bold';font-weight:700;font-size:43px;fill:rgb(27,170,229);">U</text>
            </g>
            <g transform="matrix(0.928633,0.371,-0.371,0.928633,0,0)">
                <text x="467.017px" y="354.763px" style="font-family:'Interstate-Bold';font-weight:700;font-size:43px;fill:rgb(27,170,229);">N</text>
            </g>
            <g transform="matrix(0.990247,0.139326,-0.139326,0.990247,0,0)">
                <text x="401.419px" y="463.38px" style="font-family:'Interstate-Bold';font-weight:700;font-size:43px;fill:rgb(27,170,229);">D</text>
            </g>
            <g transform="matrix(0.996049,-0.0888093,0.0888093,0.996049,0,0)">
                <text x="316.223px" y="549.307px" style="font-family:'Interstate-Bold';font-weight:700;font-size:43px;fill:rgb(27,170,229);">R</text>
            </g>
            <g transform="matrix(0.948294,-0.317393,0.317393,0.948294,0,0)">
                <text x="210.927px" y="614.9px" style="font-family:'Interstate-Bold';font-weight:700;font-size:43px;fill:rgb(27,170,229);">O</text>
            </g>
            <g transform="matrix(0.833931,-0.551868,0.551868,0.833931,0,0)">
                <text x="75.976px" y="657.032px" style="font-family:'Interstate-Bold';font-weight:700;font-size:43px;fill:rgb(27,170,229);">M</text>
            </g>
            <g transform="matrix(0.654528,-0.756038,0.756038,0.654528,0,0)">
                <text x="-67.143px" y="662.929px" style="font-family:'Interstate-Bold';font-weight:700;font-size:43px;fill:rgb(27,170,229);">A</text>
            </g>
            <g transform="matrix(0.459312,-0.888275,0.888275,0.459312,0,0)">
                <text x="-188.185px" y="636.157px" style="font-family:'Interstate-Bold';font-weight:700;font-size:43px;fill:rgb(27,170,229);">T</text>
            </g>
            <g transform="matrix(0.698035,-0.716063,0.716063,0.698035,0,0)">
                <text x="-34.049px" y="432.95px" style="font-family:'Interstate-Bold';font-weight:700;font-size:43px;fill:rgb(27,170,229);">A</text>
            </g>
            <g transform="matrix(0.872941,-0.487826,0.487826,0.872941,0,0)">
                <text x="119.616px" y="416.213px" style="font-family:'Interstate-Bold';font-weight:700;font-size:43px;fill:rgb(27,170,229);">T</text>
            </g>
            <g transform="matrix(0.978685,-0.205368,0.205368,0.978685,0,0)">
                <text x="262.154px" y="353.175px" style="font-family:'Interstate-Bold';font-weight:700;font-size:43px;fill:rgb(27,170,229);">M</text>
            </g>
            <g transform="matrix(0.999547,0.0301116,-0.0301116,0.999547,0,0)">
                <text x="371.141px" y="274.798px" style="font-family:'Interstate-Bold';font-weight:700;font-size:43px;fill:rgb(27,170,229);">I</text>
            </g>
            <g transform="matrix(0.891327,0.45336,-0.45336,0.891327,0,0)">
                <text x="487.104px" y="77.871px" style="font-family:'Interstate-Bold';font-weight:700;font-size:43px;fill:rgb(27,170,229);">J</text>
            </g>
            <g transform="matrix(0.728309,0.685249,-0.685249,0.728309,0,0)">
                <text x="514.318px" y="-69.714px" style="font-family:'Interstate-Bold';font-weight:700;font-size:43px;fill:rgb(27,170,229);">R</text>
            </g>
            <path d="M261.975,387.817C261.975,391.02 259.497,393.616 256.44,393.616C253.382,393.616 250.904,391.02 250.904,387.817C250.904,384.614 253.382,382.018 256.44,382.018C259.497,382.018 261.975,384.614 261.975,387.817" style="fill:rgb(27,170,229);fill-rule:nonzero;"/>
        </g>
    </g>
</svg>
