<?xml version="1.0" encoding="utf-8"?>
<!-- Generator: Adobe Illustrator 19.2.1, SVG Export Plug-In . SVG Version: 6.00 Build 0)  -->
<svg version="1.1" id="Layer_1" xmlns="http://www.w3.org/2000/svg" xmlns:xlink="http://www.w3.org/1999/xlink" x="0px" y="0px"
	 viewBox="0 0 358 181.2" style="enable-background:new 0 0 358 181.2;" xml:space="preserve">
<style type="text/css">
	.st0{fill:#252839;}
	.st1{fill:none;}
	.st2{fill:#F2B632;}
</style>
<title>logo</title>
<path class="st0" d="M127.6,109.7l12.9-73.1c2.6-14.3,18.8-25.8,35.1-25.8c15,0,25.7,11.6,23.1,25.8l-3.2,17.7h-9.9l3.2-17.7
	c1.5-8.4-5.6-15.9-14.9-15.9c-10.8,0-21.9,7.5-23.4,15.9l-12.9,73.1c-1.5,8.9,7.4,15.2,17.9,15.2c9,0,18.9-6.3,20.4-15.2l5.7-32.1
	h-15.3l1.4-8.3h25.2l-7.1,40.4c-2.6,14.1-17.6,24.8-32,24.8C137.9,134.5,125.2,123.8,127.6,109.7z"/>
<path class="st0" d="M78.3,134.4H65.4l-8.1-80.7L43,134.4h-9.8L54.9,11.8H66l8.5,107.6l46.8-107.6h9.3l-21.7,122.6h-10l14.3-80.1
	L78.3,134.4z"/>
<path class="st0" d="M199.2,129.5h-4.7L204.8,71h12.5c6.9,0,11.5,5.6,10.3,12.5L225,98c-0.6,3.2-3.2,6.4-6.7,8.7
	c3.1,2.1,4.6,5.8,3.9,9.5l-2.4,13.4H215l2.4-13.4c0.7-3.9-2.4-7.2-6.6-7.2h-8L199.2,129.5z M208.7,75.7l-5.2,29.2h8
	c4.2,0,8-3.3,8.6-6.9l2.6-14.5c0.8-4.4-1.9-7.7-6.3-7.7L208.7,75.7L208.7,75.7L208.7,75.7z"/>
<path class="st0" d="M250.9,129.5l-0.8-10.2h-15.4l-4.4,10.2h-4.9L247.5,71h6.4l1.9,58.5H250.9L250.9,129.5z M250.1,115.3l-0.9-36.1
	c-4.2,11.3-8.2,22.3-13.3,36.1H250.1z"/>
<path class="st0" d="M261,129.5L271.3,71h12.5c6.5,0,11.5,5,10.3,11.8l-6.1,34.9c-1.2,6.8-8.1,11.8-14.6,11.8H261L261,129.5z
	 M275.1,75.6l-8.7,49.4h7.7c3.9,0,8.2-3,9-7.2l6.1-34.9c0.8-4.2-2.4-7.2-6.4-7.2L275.1,75.6L275.1,75.6L275.1,75.6z"/>
<path class="st0" d="M315.3,129.5l-0.8-10.2h-15.4l-4.4,10.2h-4.9L312,71h6.4l1.9,58.5H315.3z M314.5,115.3l-0.9-36.1
	c-4.2,11.3-8.2,22.3-13.3,36.1H314.5L314.5,115.3z"/>
<rect id="_Slice_" class="st1" width="358" height="181.2"/>
<path class="st2" d="M71.6,134.4H58.7l-8.1-80.7l-14.3,80.7h-9.8L48.2,11.8h11.1l8.5,107.6l46.8-107.6h9.3l-21.7,122.6h-10
	l14.3-80.1L71.6,134.4z"/>
</svg>
