<svg id="Layer_1" data-name="Layer 1" xmlns="http://www.w3.org/2000/svg" viewBox="0 0 151.04 123.7"><defs><style>.cls-1{fill:#b5b5b7;}.cls-2{fill:#ed3737;}</style></defs><title>logo-title</title><path class="cls-1" d="M124.68,152.67h-12.9L103.68,72l-14.3,80.7h-9.8l21.7-122.6h11.1l8.5,107.6,46.8-107.6H177l-21.7,122.6h-10l14.3-80.1Z" transform="translate(-79.58 -29.49)"/><path class="cls-2" d="M159.13,128.39L172,55.29c2.6-14.3,18.8-25.8,35.1-25.8,15,0,25.7,11.6,23.1,25.8L227,73h-9.9l3.2-17.7c1.5-8.4-5.6-15.9-14.9-15.9-10.8,0-21.9,7.5-23.4,15.9l-12.9,73.1c-1.5,8.9,7.4,15.2,17.9,15.2,9,0,18.9-6.3,20.4-15.2l5.7-32.1h-15.3l1.4-8.3h25.2l-7.1,40.4c-2.6,14.1-17.6,24.8-32,24.8C169.43,153.17,156.73,142.49,159.13,128.39Z" transform="translate(-79.58 -29.49)"/></svg>