<svg id="Layer_1" data-name="Layer 1" xmlns="http://www.w3.org/2000/svg" viewBox="0 0 358 181.2"><defs><style>.cls-1{fill:#252839;}.cls-2{fill:#f2b632;}.cls-3{fill:none;}</style></defs><title>logo</title><path class="cls-1" d="M71.6,344.92H58.7l-8.1-80.7-14.3,80.7H26.5l21.7-122.6H59.3l8.5,107.6,46.8-107.6h9.3l-21.7,122.6h-10l14.3-80.1Z" transform="translate(5.7 -211.52)"/><path class="cls-2" d="M121.9,321.22l12.9-73.1c2.6-14.3,18.8-25.8,35.1-25.8,15,0,25.7,11.6,23.1,25.8l-3.2,17.7h-9.9l3.2-17.7c1.5-8.4-5.6-15.9-14.9-15.9-10.8,0-21.9,7.5-23.4,15.9l-12.9,73.1c-1.5,8.9,7.4,15.2,17.9,15.2,9,0,18.9-6.3,20.4-15.2l5.7-32.1H160.6l1.4-8.3h25.2l-7.1,40.4c-2.6,14.1-17.6,24.8-32,24.8C132.2,346,119.5,335.32,121.9,321.22Z" transform="translate(5.7 -211.52)"/><path class="cls-1" d="M193.5,341h-4.7l10.3-58.5h12.5c6.9,0,11.5,5.6,10.3,12.5l-2.6,14.5c-0.6,3.2-3.2,6.4-6.7,8.7a9.41,9.41,0,0,1,3.9,9.5l-2.4,13.4h-4.8l2.4-13.4c0.7-3.9-2.4-7.2-6.6-7.2h-8Zm9.5-53.8-5.2,29.2h8c4.2,0,8-3.3,8.6-6.9L217,295c0.8-4.4-1.9-7.7-6.3-7.7H203v-0.1Z" transform="translate(5.7 -211.52)"/><path class="cls-1" d="M245.2,341l-0.8-10.2H229L224.6,341h-4.9l22.1-58.5h6.4l1.9,58.5h-4.9Zm-0.8-14.2-0.9-36.1c-4.2,11.3-8.2,22.3-13.3,36.1h14.2Z" transform="translate(5.7 -211.52)"/><path class="cls-1" d="M255.3,341l10.3-58.5h12.5c6.5,0,11.5,5,10.3,11.8l-6.1,34.9c-1.2,6.8-8.1,11.8-14.6,11.8H255.3Zm14.1-53.9-8.7,49.4h7.7c3.9,0,8.2-3,9-7.2l6.1-34.9c0.8-4.2-2.4-7.2-6.4-7.2h-7.7v-0.1Z" transform="translate(5.7 -211.52)"/><path class="cls-1" d="M309.6,341l-0.8-10.2H293.4L289,341h-4.9l22.2-58.5h6.4l1.9,58.5h-5Zm-0.8-14.2-0.9-36.1c-4.2,11.3-8.2,22.3-13.3,36.1h14.2Z" transform="translate(5.7 -211.52)"/><rect id="_Slice_" data-name="&lt;Slice&gt;" class="cls-3" width="358" height="181.2"/></svg>