<?xml version="1.0" encoding="utf-8"?>
<!-- Generator: Adobe Illustrator 19.2.1, SVG Export Plug-In . SVG Version: 6.00 Build 0)  -->
<svg version="1.1" id="Layer_1" xmlns="http://www.w3.org/2000/svg" xmlns:xlink="http://www.w3.org/1999/xlink" x="0px" y="0px"
	 viewBox="0 0 512 512" style="enable-background:new 0 0 512 512;" xml:space="preserve">
<style type="text/css">
	.st0{fill:#777777;}
</style>
<g>
	<path class="st0" d="M258.9,507.2C120.4,507.9,6.7,392.6,9.9,252C12.9,118.1,124,7,262.3,8.7c136.6,1.7,249.4,115.4,245.8,256
		C504.7,398.1,394.7,507.8,258.9,507.2z M477.8,257.9c-1-125.3-102.4-221.7-222-219.9C139.2,39.7,40.2,134.7,40.4,258.3
		C40.6,383.7,142.8,479.9,262.5,478C378.8,476.2,476.9,381.3,477.8,257.9z"/>
	<path class="st0" d="M113.9,263c3.7-12.9-0.8-25.1-4.5-38c-14.3-50,18.9-99.4,70.6-105.7c16.4-2,32.2,0.8,47.1,8.2
		c2.2,1.1,5.1,1.6,7.6,1.4c66.2-6.8,125,30.9,145.6,93.8c6.3,19.1,8,38.7,5.6,58.7c-0.3,2.4,0.3,5.3,1.5,7.4
		c23.3,43.6,6.2,96-38.5,116.5c-25.6,11.8-51.1,10.3-75.8-3.3c-3.5-1.9-6.7-2.8-10.8-2.4c-69.2,6.4-133-42.2-145.4-110.6
		C115.4,280.7,114.9,272.2,113.9,263z M126,266.5c1.2,7.8,2.1,18.3,4.5,28.5c14,59.1,74.6,100.4,134.7,92.1
		c3.9-0.5,6.9,0.2,10.2,2.3c16.6,10.6,34.7,14.3,54,9.7c48.9-11.7,71.1-64.4,45.5-107.8c-1.4-2.3-2.1-5.7-1.7-8.3
		c3.6-23.9,0.5-46.8-9.1-68.9c-21.2-48.7-73.2-81.5-132.2-73.1c-2.5,0.4-5.4-0.7-7.9-1.5c-8.8-2.7-17.5-7.2-26.5-8.2
		c-28.1-3-51.3,7.2-67.2,30.7c-16,23.6-16.7,48.8-4,74.4c1.1,2.2,1.5,5,1.4,7.5C127.6,250.6,126.8,257.3,126,266.5z"/>
	<path class="st0" d="M249.6,340.9c-18.3-0.6-35.4-3.4-49.8-15c-6.5-5.3-11.4-11.6-12.4-20.3c-0.8-6.7,1.8-12,7-14.8
		c5.7-3,12.2-2.4,17.1,2.3c3.7,3.6,6.9,7.7,10.3,11.6c10.3,11.7,31.5,15,44.9,7c6.5-3.9,10.5-9.2,9.7-17.1
		c-0.8-8.1-6.5-11.6-13.5-13.5c-13.5-3.6-27.1-6.9-40.6-10.4c-9.5-2.5-18-6.6-25.2-13.6c-13.9-13.6-16.8-49.7,12.9-63.9
		c27.9-13.3,55.5-11.4,81.7,5.6c6,3.9,10.6,9.1,12.2,16.4c1.5,6.9-0.3,12-5.4,15.3c-5.8,3.7-13.1,3.6-18.2-0.6
		c-3.2-2.7-6.2-5.6-8.8-8.8c-9.8-11.6-31.9-12.2-41.8-7.2c-5.7,2.9-9.4,7.3-9.6,14c-0.2,6.6,4.2,10.4,9.5,12.1
		c11.2,3.6,22.7,6.2,34.1,9.3c6.7,1.8,13.6,3.3,20.1,5.7c16.5,6.3,25.8,18.3,26.6,36.2c0.9,17.9-6.4,31.7-21.9,40.8
		C276.3,339,262.7,340.4,249.6,340.9z"/>
</g>
</svg>
